<?xml version="1.0" standalone="no"?>
<!DOCTYPE svg PUBLIC "-//W3C//DTD SVG 1.1//EN" "http://www.w3.org/Graphics/SVG/1.1/DTD/svg11.dtd" >
<svg xmlns="http://www.w3.org/2000/svg">
<metadata>Generated by IcoMoon</metadata>
<defs>
<font id="icomoon" horiz-adv-x="1024">
<font-face units-per-em="1024" ascent="870.850439882698" descent="-153.14956011730206" />
<missing-glyph horiz-adv-x="1024" />
<glyph unicode="&#x20;" horiz-adv-x="0" d="" />
<glyph unicode="&#xe900;" glyph-name="minimize" d="M960.876-32.126h-897.753c-35.47 0-64.126 28.656-64.126 64.126s28.656 64.126 64.126 64.126h897.753c35.47 0 64.126-28.656 64.126-64.126s-28.656-64.126-64.126-64.126z" />
<glyph unicode="&#xe901;" glyph-name="maximize" d="M928.814 832.876h-833.627c-53.104 0-96.188-43.084-96.188-96.188v-705.377c0-53.104 43.084-96.188 96.188-96.188h833.627c53.104 0 96.188 43.084 96.188 96.188v705.377c0 53.104-43.084 96.188-96.188 96.188zM928.814 43.335c0-6.612-5.41-12.024-12.024-12.024h-809.581c-6.612 0-12.024 5.41-12.024 12.024v468.915h833.627v-468.915z" />
<glyph unicode="&#xe902;" glyph-name="close" d="M670.006 384l236.987 236.987c29.084 29.084 29.084 76.236 0 105.338l-52.668 52.668c-29.084 29.084-76.236 29.084-105.338 0l-236.987-236.987-236.987 236.987c-29.084 29.084-76.236 29.084-105.338 0l-52.668-52.668c-29.084-29.084-29.084-76.236 0-105.338l236.987-236.987-236.987-236.987c-29.084-29.084-29.084-76.236 0-105.338l52.668-52.668c29.084-29.084 76.253-29.084 105.338 0l236.987 236.987 236.987-236.987c29.084-29.084 76.253-29.084 105.338 0l52.668 52.668c29.084 29.084 29.084 76.236 0 105.338l-236.987 236.987z" />
<glyph unicode="&#xe903;" glyph-name="check" d="M347.475 16.475l-333.451 333.451c-20.034 20.034-20.034 52.514 0 72.55l72.548 72.55c20.034 20.036 52.516 20.036 72.55 0l224.628-224.626 481.129 481.127c20.034 20.034 52.516 20.034 72.55 0l72.548-72.55c20.034-20.034 20.034-52.514 0-72.55l-589.952-589.954c-20.036-20.034-52.516-20.034-72.55 0.002z" />
<glyph unicode="&#xe904;" glyph-name="plus" d="M624.918 493.070v328.489c0 17.964-7.699 38.495-20.531 51.326s-33.362 23.097-53.893 23.097h-71.857c-17.964 0-38.495-7.699-51.326-20.531s-20.531-33.362-20.531-51.326v0-331.056h-331.056c-17.964 0-38.495-7.699-51.326-20.531s-23.097-35.929-23.097-53.893v-71.857c0-17.964 7.699-38.495 20.531-51.326s33.362-20.531 51.326-20.531v0h331.056v-331.056c0-17.964 7.699-38.495 20.531-51.326s33.362-20.531 51.326-20.531h71.857c17.964 0 38.495 7.699 51.326 20.531s20.531 33.362 20.531 51.326v328.489h331.056c17.964 0 38.495 7.699 51.326 20.531s20.531 33.362 20.531 51.326v71.857c0 17.964-7.699 38.495-20.531 51.326s-33.362 20.531-51.326 20.531v0l-325.923 5.133z" />
<glyph unicode="&#xe905;" glyph-name="minus" d="M950.857 493.714h-877.714c-40.389 0-73.143-32.754-73.143-73.143v-73.143c0-40.389 32.754-73.143 73.143-73.143h877.714c40.389 0 73.143 32.754 73.143 73.143v73.143c0 40.389-32.754 73.143-73.143 73.143z" />
<glyph unicode="&#xe906;" glyph-name="help" d="M512.942 896.5c-159.794 0-263.293-65.47-344.55-182.23-14.74-21.181-10.196-50.221 10.366-65.812l86.36-65.482c20.766-15.745 50.313-12.064 66.571 8.304 50.147 62.823 87.345 98.995 165.676 98.995 61.588 0 137.767-39.637 137.767-99.359 0-45.148-37.27-68.335-98.082-102.428-70.915-39.759-164.759-89.239-164.759-213.018v-19.595c0-26.536 21.511-48.047 48.047-48.047h145.084c26.536 0 48.047 21.511 48.047 48.047v11.557c0 85.804 250.781 89.377 250.781 321.568 0.002 174.859-181.379 307.5-351.307 307.5zM492.881 148.852c-76.467 0-138.677-62.211-138.677-138.677s62.211-138.675 138.677-138.675 138.677 62.211 138.677 138.677-62.211 138.675-138.677 138.675z" />
<glyph unicode="&#xe907;" glyph-name="close-round" d="M512 896c-282.77 0-512-229.23-512-512s229.23-512 512-512 512 229.23 512 512-229.23 512-512 512zM512-32c-229.75 0-416 186.25-416 416s186.25 416 416 416 416-186.25 416-416-186.25-416-416-416zM672 640l-160-160-160 160-96-96 160-160-160-160 96-96 160 160 160-160 96 96-160 160 160 160z" />
<glyph unicode="&#xe908;" glyph-name="check-round" d="M512 880c-273.934 0-496-222.066-496-496s222.066-496 496-496 496 222.066 496 496-222.066 496-496 496zM512 784c221.064 0 400-178.902 400-400 0-221.064-178.902-400-400-400-221.064 0-400 178.902-400 400 0 221.064 178.902 400 400 400zM792.408 523.466l-45.072 45.436c-9.334 9.41-24.53 9.472-33.94 0.136l-282.704-280.432-119.584 120.554c-9.334 9.41-24.53 9.472-33.94 0.138l-45.438-45.072c-9.41-9.334-9.472-24.53-0.136-33.942l181.562-183.032c9.334-9.41 24.53-9.472 33.94-0.136l345.178 342.408c9.408 9.336 9.468 24.532 0.134 33.942z" />
<glyph unicode="&#xe909;" glyph-name="help-round" d="M448 192h128v-128h-128zM704 640c35.346 0 64-28.654 64-64v-192l-192-128h-128v64l192 128v64h-320v128h384zM512 800c-111.118 0-215.584-43.272-294.156-121.844s-121.844-183.038-121.844-294.156c0-111.118 43.272-215.584 121.844-294.156s183.038-121.844 294.156-121.844c111.118 0 215.584 43.272 294.156 121.844s121.844 183.038 121.844 294.156c0 111.118-43.272 215.584-121.844 294.156s-183.038 121.844-294.156 121.844zM512 896v0c282.77 0 512-229.23 512-512s-229.23-512-512-512c-282.77 0-512 229.23-512 512s229.23 512 512 512z" />
<glyph unicode="&#xe90a;" glyph-name="info-round" d="M448 592c0 26.4 21.6 48 48 48h32c26.4 0 48-21.6 48-48v-32c0-26.4-21.6-48-48-48h-32c-26.4 0-48 21.6-48 48v32zM640 128h-256v64h64v192h-64v64h192v-256h64zM512 896c-282.77 0-512-229.23-512-512s229.23-512 512-512 512 229.23 512 512-229.23 512-512 512zM512-32c-229.75 0-416 186.25-416 416s186.25 416 416 416 416-186.25 416-416-186.25-416-416-416z" />
<glyph unicode="&#xe90b;" glyph-name="warning-round" d="M512 800c-111.118 0-215.584-43.272-294.156-121.844s-121.844-183.038-121.844-294.156c0-111.118 43.272-215.584 121.844-294.156s183.038-121.844 294.156-121.844c111.118 0 215.584 43.272 294.156 121.844s121.844 183.038 121.844 294.156c0 111.118-43.272 215.584-121.844 294.156s-183.038 121.844-294.156 121.844zM512 896v0c282.77 0 512-229.23 512-512s-229.23-512-512-512c-282.77 0-512 229.23-512 512s229.23 512 512 512zM448 192h128v-128h-128zM448 704h128v-384h-128z" />
<glyph unicode="&#xe90c;" glyph-name="warning" d="M512 803.227l429.101-855.225h-858.205l429.103 855.225zM512 896c-22.070 0-44.14-14.882-60.884-44.648l-437.073-871.112c-33.486-59.532-5-108.24 63.304-108.24h869.307c68.3 0 96.792 48.708 63.3 108.24h0.002l-437.073 871.112c-16.742 29.766-38.812 44.648-60.882 44.648v0zM576 64.001c0-35.346-28.654-64-64-64s-64 28.654-64 64c0 35.346 28.654 64 64 64s64-28.654 64-64zM512 192.001c-35.346 0-64 28.654-64 64v192c0 35.346 28.654 64 64 64s64-28.654 64-64v-192c0-35.346-28.654-64-64-64z" />
<glyph unicode="&#xe90d;" glyph-name="eye" d="M511.999 564.49c-18.075-0.291-35.36-3.219-51.633-8.415l1.266 0.349c7.217-12.514 11.512-27.506 11.605-43.492v-0.027c0-49.833-40.397-90.23-90.23-90.23v0c-16.015 0.093-31.006 4.388-43.954 11.835l0.434-0.23c-4.439-14.879-6.994-31.976-6.994-49.67 0-99.345 80.536-179.881 179.881-179.881s179.881 80.536 179.881 179.881c0 99.345-80.536 179.881-179.881 179.881-0.132 0-0.264 0-0.396-0.001h0.021zM970.406 407.529c-86.125 169.686-258.695 284.296-458.19 285.894l-0.217 0.001c-199.707-1.612-372.27-116.217-457.051-282.956l-1.356-2.938c-3.531-6.849-5.601-14.948-5.601-23.53s2.070-16.68 5.739-23.823l-0.137 0.294c86.125-169.686 258.695-284.296 458.19-285.894l0.217-0.001c199.707 1.612 372.27 116.217 457.051 282.956l1.356 2.938c3.531 6.849 5.601 14.948 5.601 23.53s-2.070 16.68-5.739 23.823l0.137-0.294zM511.999 151.924c-165.286 1.32-308.646 93.908-382.289 229.791l-1.147 2.314c74.791 138.198 218.151 230.785 383.254 232.103l0.182 0.001c165.286-1.32 308.646-93.908 382.289-229.791l1.147-2.314c-74.782-138.207-218.148-230.798-383.256-232.103l-0.18-0.001z" />
<glyph unicode="&#xe90e;" glyph-name="eye-slash" d="M1014.37 40.020l-956.744 747.94c-4.341 3.498-9.923 5.616-15.999 5.616-8.061 0-15.252-3.726-19.944-9.55l-0.038-0.050-15.999-19.983c-3.508-4.344-5.632-9.933-5.632-16.018 0-8.068 3.733-15.265 9.566-19.956l0.050-0.038 956.744-747.94c4.341-3.498 9.923-5.616 15.999-5.616 8.061 0 15.252 3.726 19.944 9.55l0.038 0.050 15.999 19.983c3.508 4.344 5.632 9.933 5.632 16.018 0 8.068-3.733 15.265-9.566 19.956l-0.050 0.038zM474.865 559.238l215.651-168.598c-3.552 95.898-81.755 172.55-178.518 172.55-13.166-0.026-25.982-1.464-38.323-4.171l1.189 0.219zM549.133 208.746l-215.651 168.598c3.568-95.882 81.771-172.534 178.518-172.534 13.167 0.029 25.983 1.461 38.328 4.154l-1.194-0.218zM511.999 614.387c157.831 0 302.526-87.995 380.666-230.387-20.257-36.677-43.623-68.303-70.56-96.487l0.164 0.173 60.38-47.197c32.572 34.776 60.74 74.283 83.234 117.231l1.402 2.938c3.509 6.796 5.567 14.833 5.567 23.351s-2.057 16.555-5.703 23.641l0.136-0.29c-86.843 169.286-258.609 283.823-455.285 283.823-58.717 0-114.729-11.199-167.398-30.094l74.252-58.061c30.302 6.88 61.34 11.359 93.147 11.359zM511.999 153.613c-157.831 0-302.51 87.995-380.666 230.387 20.281 36.671 43.672 68.292 70.636 96.466l-0.16-0.168-60.38 47.197c-32.568-34.771-60.731-74.273-83.218-117.216l-1.401-2.937c-3.509-6.796-5.567-14.833-5.567-23.351s2.057-16.555 5.703-23.641l-0.136 0.29c86.763-169.286 258.529-283.823 455.189-283.823 58.717 0 114.729 11.279 167.398 30.094l-74.252 58.045c-30.302-6.864-61.324-11.343-93.147-11.343z" />
<glyph unicode="&#xe90f;" glyph-name="edit" d="M864.345 896.5c88.45 0 160.156-71.704 160.156-160.156 0-36.055-11.922-69.326-32.031-96.094l-64.063-64.063-224.219 224.219 64.063 64.063c26.768 20.11 60.037 32.031 96.094 32.031zM63.563 159.781l-64.063-288.282 288.282 64.063 592.579 592.579-224.219 224.219-592.579-592.579zM715.776 532.567l-448.438-448.438-55.21 55.21 448.438 448.438 55.21-55.21z" />
<glyph unicode="&#xe910;" glyph-name="copy" d="M931.882 764.118l-103.764 103.764c-17.373 17.373-41.372 28.118-67.882 28.118h-344.236c-53.020 0-96-42.98-96-96v-96h-160c-53.020 0-96-42.98-96-96v-640c0-53.020 42.98-96 96-96h448c53.020 0 96 42.98 96 96v96h160c53.020 0 96 42.98 96 96v536.236c0 26.51-10.745 50.509-28.118 67.882v0zM596-32h-424c-6.627 0-12 5.373-12 12v0 616c0 6.627 5.373 12 12 12v0h148v-448c0-53.020 42.98-96 96-96h192v-84c0-6.627-5.373-12-12-12v0zM852 160h-424c-6.627 0-12 5.373-12 12v0 616c0 6.627 5.373 12 12 12v0h212v-176c0-26.51 21.49-48 48-48h176v-404c0-6.627-5.373-12-12-12v0zM864 672h-128v128h19.264c3.182 0 6.234-1.264 8.486-3.514l96.736-96.736c2.171-2.172 3.514-5.171 3.514-8.485 0-0.001 0-0.001 0-0.002v0-19.264z" />
<glyph unicode="&#xe911;" glyph-name="delete" d="M160 576v-640c0-35.2 28.8-64 64-64h576c35.2 0 64 28.8 64 64v640h-704zM352 0h-64v448h64v-448zM480 0h-64v448h64v-448zM608 0h-64v448h64v-448zM736 0h-64v448h64v-448zM880 768h-208v80c0 26.4-21.6 48-48 48h-224c-26.4 0-48-21.6-48-48v-80h-208c-26.4 0-48-21.6-48-48v-80h832v80c0 26.4-21.6 48-48 48zM608 768h-192v63.198h192v-63.198z" />
<glyph unicode="&#xe912;" glyph-name="reload" d="M748.838 637.356c-64.541 60.432-148.299 93.56-237.156 93.482-159.915-0.141-297.968-109.786-336.085-261.884-2.774-11.072-12.639-18.891-24.053-18.891h-118.303c-15.48 0-27.24 14.053-24.376 29.266 44.67 237.213 252.94 416.67 503.132 416.67 137.184 0 261.763-53.959 353.682-141.803l73.734 73.734c31.215 31.215 84.584 9.106 84.584-35.037v-276.767c0-27.365-22.184-49.549-49.549-49.549h-276.767c-44.143 0-66.252 53.369-35.037 84.586l86.192 86.191zM49.545 301.418h276.767c44.143 0 66.252-53.369 35.037-84.586l-86.192-86.192c64.541-60.434 148.303-93.562 237.165-93.482 159.831 0.143 297.941 109.716 336.078 261.882 2.774 11.072 12.639 18.891 24.053 18.891h118.306c15.48 0 27.24-14.053 24.376-29.266-44.673-237.209-252.942-416.665-503.134-416.665-137.184 0-261.763 53.959-353.682 141.803l-73.734-73.734c-31.215-31.215-84.584-9.106-84.584 35.037v276.767c0 27.365 22.184 49.549 49.549 49.549z" />
<glyph unicode="&#xe913;" glyph-name="import" d="M-0.501-16.391h1025.001v-64.063h-1025.001zM1024.501 111.734v-64.063h-1025.001v64.063l128.125 256.25h256.25v-128.125h256.25v128.125h256.25zM223.719 560.172l288.282 288.282 288.282-288.282h-224.219v-256.25h-128.125v256.25z" />
<glyph unicode="&#xe914;" glyph-name="export" d="M895.998 383.999h-159.998l-224-224-224 224h-159.998l-128-256v-64h1023.998v64l-128 256zM0 0.001h1023.998v-64h-1023.998v64zM575.998 575.999v256h-128v-256h-224l288-288 288 288h-224z" />
<glyph unicode="&#xe915;" glyph-name="search" d="M992.73 24.249l-242.789 206.497c-25.1 22.588-51.941 32.958-73.624 31.957 57.312 67.135 91.932 154.23 91.932 249.421 0 212.285-172.090 384.375-384.375 384.375-212.283 0-384.375-172.090-384.375-384.375s172.090-384.375 384.375-384.375c95.191 0 182.286 34.62 249.421 91.934-1.001-21.683 9.369-48.525 31.957-73.624l206.497-242.789c35.358-39.284 93.113-42.596 128.345-7.363s31.923 92.989-7.361 128.345zM383.872 255.871c-141.522 0-256.25 114.728-256.25 256.25s114.728 256.25 256.25 256.25 256.25-114.728 256.25-256.25-114.726-256.25-256.25-256.25z" />
<glyph unicode="&#xe916;" glyph-name="calendar" d="M351.843 512.125h128.125v-128.125h-128.125zM544.031 512.125h128.125v-128.125h-128.125zM736.218 512.125h128.125v-128.125h-128.125zM159.655 127.75h128.125v-128.125h-128.125zM351.843 127.75h128.125v-128.125h-128.125zM544.031 127.75h128.125v-128.125h-128.125zM351.843 319.937h128.125v-128.125h-128.125zM544.031 319.937h128.125v-128.125h-128.125zM736.218 319.937h128.125v-128.125h-128.125zM159.655 319.937h128.125v-128.125h-128.125zM864.344 896.5v-64.063h-128.125v64.063h-448.438v-64.063h-128.125v64.063h-128.125v-1025.001h960.938v1025.001h-128.125zM928.406-64.438h-832.813v704.688h832.813v-704.688z" />
<glyph unicode="&#xe917;" glyph-name="save" d="M992.334 672.417l-191.917 191.917c-19.874 19.874-47.328 32.166-77.655 32.166h-613.441c-60.653 0-109.821-49.168-109.821-109.821v-805.358c0-60.653 49.168-109.821 109.821-109.821h805.358c60.653 0 109.821 49.168 109.821 109.821v613.441c0 30.327-12.292 57.781-32.166 77.655v0zM621.82 786.679v-183.037h-292.858v183.037h292.858zM900.949-18.681h-777.905c-7.581 0-13.727 6.147-13.727 13.727v0 777.905c0 7.581 6.147 13.727 13.727 13.727v0h96.094v-237.946c0-30.327 24.584-54.911 54.911-54.911h402.68c30.327 0 54.911 24.584 54.911 54.911v229.066l179.017-179.017c2.483-2.484 4.020-5.916 4.020-9.706 0-0.001 0-0.001 0-0.002v0-594.026c0-7.581-6.147-13.727-13.727-13.727v0zM511.997 438.91c-111.018 0-201.341-90.321-201.341-201.341s90.321-201.341 201.341-201.341 201.341 90.321 201.341 201.341-90.321 201.341-201.341 201.341zM511.997 146.053c-50.463 0-91.518 41.055-91.518 91.518s41.055 91.518 91.518 91.518 91.518-41.055 91.518-91.518-41.055-91.518-91.518-91.518z" />
<glyph unicode="&#xe918;" glyph-name="sort" d="M789.041 152.548l-280.548-280.548-280.548 280.548h561.096zM234.959 615.452l280.548 280.548 280.548-280.548h-561.096z" />
<glyph unicode="&#xe919;" glyph-name="sort-asc" d="M799.986 152.548l-280.548-280.548-280.548 280.548h561.096z" />
<glyph unicode="&#xe91a;" glyph-name="sort-desc" d="M231.014 615.452l280.548 280.548 280.548-280.548h-561.096z" />
</font>
</defs>
</svg>
