<!-- Generated by IcoMoon.io -->
<svg version="1.1" xmlns="http://www.w3.org/2000/svg" width="32" height="32" viewBox="0 0 32 32">
<title>check-round</title>
<path d="M16 0.5c-8.56 0-15.5 6.94-15.5 15.5s6.94 15.5 15.5 15.5 15.5-6.94 15.5-15.5-6.94-15.5-15.5-15.5zM16 3.5c6.908 0 12.5 5.591 12.5 12.5 0 6.908-5.591 12.5-12.5 12.5-6.908 0-12.5-5.591-12.5-12.5 0-6.908 5.591-12.5 12.5-12.5zM24.763 11.642l-1.409-1.42c-0.292-0.294-0.767-0.296-1.061-0.004l-8.835 8.764-3.737-3.767c-0.292-0.294-0.767-0.296-1.061-0.004l-1.42 1.409c-0.294 0.292-0.296 0.767-0.004 1.061l5.674 5.72c0.292 0.294 0.767 0.296 1.061 0.004l10.787-10.7c0.294-0.292 0.296-0.767 0.004-1.061z"></path>
</svg>
