<!-- Generated by IcoMoon.io -->
<svg version="1.1" xmlns="http://www.w3.org/2000/svg" width="32" height="32" viewBox="0 0 32 32">
<title>close</title>
<path d="M20.938 16l7.406-7.406c0.909-0.909 0.909-2.382 0-3.292l-1.646-1.646c-0.909-0.909-2.382-0.909-3.292 0l-7.406 7.406-7.406-7.406c-0.909-0.909-2.382-0.909-3.292 0l-1.646 1.646c-0.909 0.909-0.909 2.382 0 3.292l7.406 7.406-7.406 7.406c-0.909 0.909-0.909 2.382 0 3.292l1.646 1.646c0.909 0.909 2.383 0.909 3.292 0l7.406-7.406 7.406 7.406c0.909 0.909 2.383 0.909 3.292 0l1.646-1.646c0.909-0.909 0.909-2.382 0-3.292l-7.406-7.406z"></path>
</svg>
