<!-- Generated by IcoMoon.io -->
<svg version="1.1" xmlns="http://www.w3.org/2000/svg" width="32" height="32" viewBox="0 0 32 32">
<title>eye-slash</title>
<path d="M31.699 26.749l-29.898-23.373c-0.136-0.109-0.31-0.175-0.5-0.175-0.252 0-0.477 0.116-0.623 0.298l-0.001 0.002-0.5 0.624c-0.11 0.136-0.176 0.31-0.176 0.501 0 0.252 0.117 0.477 0.299 0.624l0.002 0.001 29.898 23.373c0.136 0.109 0.31 0.175 0.5 0.175 0.252 0 0.477-0.116 0.623-0.298l0.001-0.002 0.5-0.624c0.11-0.136 0.176-0.31 0.176-0.501 0-0.252-0.117-0.477-0.299-0.624l-0.002-0.001zM14.84 10.524l6.739 5.269c-0.111-2.997-2.555-5.392-5.579-5.392-0.411 0.001-0.812 0.046-1.198 0.13l0.037-0.007zM17.16 21.477l-6.739-5.269c0.111 2.996 2.555 5.392 5.579 5.392 0.411-0.001 0.812-0.046 1.198-0.13l-0.037 0.007zM16 8.8c4.932 0 9.454 2.75 11.896 7.2-0.633 1.146-1.363 2.134-2.205 3.015l0.005-0.005 1.887 1.475c1.018-1.087 1.898-2.321 2.601-3.663l0.044-0.092c0.11-0.212 0.174-0.464 0.174-0.73s-0.064-0.517-0.178-0.739l0.004 0.009c-2.714-5.29-8.082-8.869-14.228-8.869-1.835 0-3.585 0.35-5.231 0.94l2.32 1.814c0.947-0.215 1.917-0.355 2.911-0.355zM16 23.2c-4.932 0-9.453-2.75-11.896-7.2 0.634-1.146 1.365-2.134 2.207-3.015l-0.005 0.005-1.887-1.475c-1.018 1.087-1.898 2.321-2.601 3.663l-0.044 0.092c-0.11 0.212-0.174 0.464-0.174 0.73s0.064 0.517 0.178 0.739l-0.004-0.009c2.711 5.29 8.079 8.869 14.225 8.869 1.835 0 3.585-0.352 5.231-0.94l-2.32-1.814c-0.947 0.215-1.916 0.354-2.911 0.354z"></path>
</svg>
