<!-- Generated by IcoMoon.io -->
<svg version="1.1" xmlns="http://www.w3.org/2000/svg" width="32" height="32" viewBox="0 0 32 32">
<title>eye</title>
<path d="M16 10.36c-0.565 0.009-1.105 0.101-1.614 0.263l0.040-0.011c0.226 0.391 0.36 0.86 0.363 1.359v0.001c0 1.557-1.262 2.82-2.82 2.82v0c-0.5-0.003-0.969-0.137-1.374-0.37l0.014 0.007c-0.139 0.465-0.219 0.999-0.219 1.552 0 3.105 2.517 5.621 5.621 5.621s5.621-2.517 5.621-5.621c0-3.105-2.517-5.621-5.621-5.621-0.004 0-0.008 0-0.012 0h0.001zM30.325 15.265c-2.691-5.303-8.084-8.884-14.318-8.934l-0.007-0c-6.241 0.050-11.633 3.632-14.283 8.842l-0.042 0.092c-0.11 0.214-0.175 0.467-0.175 0.735s0.065 0.521 0.179 0.744l-0.004-0.009c2.691 5.303 8.084 8.884 14.318 8.934l0.007 0c6.241-0.050 11.633-3.632 14.283-8.842l0.042-0.092c0.11-0.214 0.175-0.467 0.175-0.735s-0.065-0.521-0.179-0.744l0.004 0.009zM16 23.252c-5.165-0.041-9.645-2.935-11.947-7.181l-0.036-0.072c2.337-4.319 6.817-7.212 11.977-7.253l0.006-0c5.165 0.041 9.645 2.935 11.947 7.181l0.036 0.072c-2.337 4.319-6.817 7.212-11.977 7.253l-0.006 0z"></path>
</svg>
