<!-- Generated by IcoMoon.io -->
<svg version="1.1" xmlns="http://www.w3.org/2000/svg" width="32" height="32" viewBox="0 0 32 32">
<title>plus</title>
<path d="M19.529 12.592v-10.265c0-0.561-0.241-1.203-0.642-1.604s-1.043-0.722-1.684-0.722h-2.246c-0.561 0-1.203 0.241-1.604 0.642s-0.642 1.043-0.642 1.604v0 10.346h-10.345c-0.561 0-1.203 0.241-1.604 0.642s-0.722 1.123-0.722 1.684v2.246c0 0.561 0.241 1.203 0.642 1.604s1.043 0.642 1.604 0.642v0h10.346v10.346c0 0.561 0.241 1.203 0.642 1.604s1.043 0.642 1.604 0.642h2.246c0.561 0 1.203-0.241 1.604-0.642s0.642-1.043 0.642-1.604v-10.265h10.346c0.561 0 1.203-0.241 1.604-0.642s0.642-1.043 0.642-1.604v-2.246c0-0.561-0.241-1.203-0.642-1.604s-1.043-0.642-1.604-0.642v0l-10.185-0.16z"></path>
</svg>
